<!DOCTYPE svg PUBLIC "-//W3C//DTD SVG 20010904//EN" "http://www.w3.org/TR/2001/REC-SVG-20010904/DTD/svg10.dtd">
<svg version="1.0" xmlns="http://www.w3.org/2000/svg" width="512px" height="512px" viewBox="0 0 5120 5120" preserveAspectRatio="xMidYMid meet">
<g id="layer101" fill="#7c1d8c" stroke="none">
 <path d="M2564 5077 c-65 -67 -262 -251 -552 -515 l-122 -112 -588 -2 c-323 0 -597 0 -609 1 -12 1 -24 -3 -28 -9 -3 -5 -6 -264 -7 -574 l0 -564 -157 -163 c-86 -90 -181 -191 -211 -224 -30 -32 -99 -103 -153 -157 -53 -54 -97 -103 -97 -109 0 -16 29 -48 315 -349 49 -52 124 -133 166 -180 42 -47 95 -105 117 -130 l41 -45 1 -622 0 -623 573 0 572 0 54 -57 c139 -147 258 -276 376 -407 6 -6 42 -45 80 -86 39 -42 85 -93 103 -113 19 -21 40 -37 47 -35 8 2 65 52 127 112 237 230 355 343 403 386 28 25 89 80 137 123 l87 79 543 6 543 7 6 225 c4 124 7 372 8 552 l1 327 332 330 c290 290 369 363 342 320 -4 -7 1 -9 12 -7 12 2 18 11 17 25 -1 11 7 29 17 38 11 10 20 25 20 34 0 9 -42 59 -93 112 -156 163 -410 430 -483 509 -38 41 -81 87 -96 102 l-28 27 -2 568 -3 568 -561 3 -561 2 -26 30 c-17 18 -24 36 -21 47 4 12 3 14 -3 6 -6 -9 -28 7 -78 57 -38 39 -75 70 -82 70 -7 0 -13 8 -13 18 0 9 -29 47 -63 83 -64 68 -184 200 -272 300 -28 32 -59 58 -70 58 -11 1 -38 -18 -61 -42z m210 -177 c23 -25 64 -70 91 -100 26 -30 90 -100 140 -155 51 -55 123 -135 161 -177 l69 -78 545 0 545 0 -2 -517 c-1 -285 1 -535 5 -555 6 -31 47 -80 253 -295 136 -142 263 -276 284 -298 20 -22 61 -66 91 -97 30 -32 54 -62 54 -67 0 -5 -162 -168 -359 -362 l-359 -354 -4 -532 c-2 -293 -6 -534 -9 -537 -3 -3 -243 -8 -534 -12 l-530 -7 -44 -41 c-24 -23 -60 -56 -80 -74 -20 -19 -81 -77 -136 -131 -55 -53 -143 -137 -195 -186 -53 -50 -135 -127 -183 -173 -61 -58 -91 -81 -101 -75 -20 11 -329 346 -506 547 -14 16 -49 53 -78 82 l-53 54 -555 0 -554 0 0 605 0 606 -50 52 c-28 29 -48 58 -45 65 3 8 0 10 -6 6 -6 -4 -28 11 -48 34 -49 54 -352 381 -423 456 l-56 60 136 146 c255 271 346 360 355 347 6 -8 7 -7 4 4 -4 11 14 36 54 74 l59 57 0 559 0 559 596 0 597 0 46 42 c25 22 87 80 136 127 206 196 238 223 248 209 6 -10 8 -9 4 3 -4 12 24 44 91 105 53 49 120 110 147 136 l50 47 53 -57 c30 -31 73 -77 96 -102z"/>
 <path d="M2579 4962 c-14 -15 -93 -91 -175 -168 -133 -126 -184 -173 -303 -279 -19 -16 -66 -59 -104 -95 l-69 -65 -587 -5 -586 -5 -5 -547 -5 -547 -71 -73 c-39 -40 -118 -122 -175 -183 -57 -60 -153 -161 -214 -223 -60 -62 -112 -120 -113 -129 -2 -9 44 -64 110 -132 62 -64 156 -163 209 -221 53 -58 139 -152 192 -210 l97 -105 0 -587 0 -588 541 0 542 0 21 -23 c11 -13 36 -41 55 -63 19 -21 64 -70 100 -109 138 -146 320 -343 377 -407 32 -36 63 -67 68 -67 4 -1 67 56 140 126 72 71 187 180 256 243 68 63 167 156 221 206 l96 91 520 8 520 7 7 524 7 524 322 319 c177 176 335 331 350 344 16 13 27 31 25 40 -1 8 -85 100 -184 203 -100 104 -203 214 -230 244 -27 30 -93 100 -146 156 l-98 100 0 526 c0 290 -3 533 -6 542 -5 14 -62 16 -533 16 l-527 0 -49 53 c-27 28 -103 111 -171 182 -67 72 -177 191 -245 265 -68 74 -130 136 -139 137 -8 1 -27 -11 -41 -25z m66 -134 c10 -13 70 -79 133 -148 64 -69 156 -170 206 -224 50 -55 115 -126 145 -158 l54 -58 499 0 498 0 0 -505 0 -506 38 -38 c20 -21 105 -109 187 -197 83 -87 193 -204 245 -259 52 -55 111 -117 130 -138 l35 -39 -333 -326 -333 -327 -6 -490 c-4 -339 -9 -492 -17 -497 -6 -4 -225 -8 -486 -8 l-475 0 -70 -67 c-78 -74 -174 -165 -385 -363 -79 -74 -161 -153 -183 -174 -22 -22 -42 -34 -46 -29 -5 10 -112 126 -301 328 -123 132 -255 277 -262 289 -5 8 -153 12 -520 14 l-513 3 2 540 c3 565 3 562 -41 605 -12 11 -48 49 -81 85 -32 35 -89 96 -125 134 -36 39 -110 119 -165 180 -55 60 -117 126 -137 147 l-38 37 192 198 c106 109 232 239 280 288 l88 90 0 513 0 512 548 0 c420 1 551 4 563 13 18 14 274 250 584 540 33 31 62 57 65 57 3 0 14 -10 25 -22z"/>
 <path d="M1083 4055 c4 -9 7 -19 7 -21 0 -3 5 -2 10 1 7 4 10 -358 10 -1079 l0 -1086 250 0 250 0 0 -85 0 -85 -250 0 -250 0 0 -165 0 -165 250 0 250 0 0 -150 0 -150 160 0 160 0 0 150 0 150 278 2 277 3 3 163 2 162 -280 0 -280 0 0 85 0 85 280 0 280 0 0 1090 0 1090 -120 0 -120 0 2 -400 3 -400 -187 0 -188 0 0 400 0 400 -110 0 -110 0 0 -400 0 -400 -160 0 -160 0 0 400 0 400 -111 0 c-62 0 -119 5 -131 11 -18 10 -20 9 -15 -6z m572 -1215 l0 -140 -145 0 -145 0 0 140 0 140 145 0 145 0 0 -140z m595 0 l0 -140 -160 0 -160 0 0 140 0 140 160 0 160 0 0 -140z m-710 -407 c-24 -33 -95 -141 -136 -210 l-29 -48 -2 45 c-2 25 -4 89 -5 143 l-3 97 98 0 99 0 -22 -27z m262 -26 c9 -18 47 -85 86 -150 l71 -117 -181 0 -180 0 14 23 c35 52 148 257 148 267 0 23 27 8 42 -23z m407 -109 l0 -133 -24 45 c-14 25 -33 63 -44 85 -11 23 -23 44 -27 48 -4 4 -15 25 -25 47 l-18 40 69 0 70 0 -1 -132z"/>
 <path d="M2811 4061 c-9 -6 -10 -11 -2 -15 13 -8 31 1 31 15 0 11 -11 11 -29 0z"/>
 <path d="M2590 2565 l0 -1475 305 0 305 0 0 620 0 620 -170 0 -170 0 0 75 0 75 425 0 425 0 0 -75 0 -75 -215 0 -215 0 -2 -562 c-2 -310 -2 -589 0 -620 l3 -58 349 0 350 0 0 1475 0 1476 -112 -3 -113 -3 0 -393 0 -392 -77 0 -78 0 0 394 0 395 -110 -1 -110 -1 3 -398 2 -399 -97 0 -98 0 -2 398 -3 397 -102 3 -103 2 0 -400 0 -400 -80 0 -80 0 -2 398 -3 397 -112 3 -113 3 0 -1476z m400 310 l0 -145 -87 0 -88 0 0 145 0 145 88 0 87 0 0 -145z m360 0 l0 -145 -75 0 -75 0 0 145 0 145 75 0 75 0 0 -145z m405 0 l0 -145 -85 0 -85 0 3 145 3 145 82 0 82 0 0 -145z m-765 -930 l0 -105 -87 0 -88 0 0 105 0 105 88 0 87 0 0 -105z m740 -9 l0 -115 -120 -3 -120 -3 0 118 0 117 120 0 120 0 0 -114z m-740 -508 l0 -118 -84 0 -85 0 -3 116 c-2 64 -2 116 -1 117 1 1 40 2 87 2 l86 0 0 -117z m740 -4 l0 -114 -120 0 -120 0 0 118 0 117 120 -3 120 -3 0 -115z"/>
 <path d="M2075 4539 c-4 -6 -5 -13 -2 -16 7 -7 27 6 27 18 0 12 -17 12 -25 -2z"/>
 <path d="M1876 752 c-3 -6 -1 -14 5 -17 15 -10 25 3 12 16 -7 7 -13 7 -17 1z"/>
 <path d="M3135 729 c-4 -6 -4 -13 -1 -16 8 -8 36 5 36 17 0 13 -27 13 -35 -1z"/>
 <path d="M2480 5050 c0 -5 7 -10 15 -10 8 0 15 5 15 10 0 6 -7 10 -15 10 -8 0 -15 -4 -15 -10z"/>
 </g>

</svg>